<svg xmlns="http://www.w3.org/2000/svg" xmlns:xlink="http://www.w3.org/1999/xlink" width="500" zoomAndPan="magnify" viewBox="0 0 375 374.999991" height="500" preserveAspectRatio="xMidYMid meet" version="1.0"><rect x="-37.5" width="450" fill="#ffffff" y="-37.499999" height="449.999989" fill-opacity="1"/><rect x="-37.5" width="450" fill="#ffffff" y="-37.499999" height="449.999989" fill-opacity="1"/><path fill="#7954d8" d="M 207.347656 27.117188 C 214.039062 40.492188 205.121094 58.144531 198.617188 70.964844 C 185.054688 98.835938 158.113281 108.496094 135.816406 127.449219 C 105.53125 153.644531 102.371094 201.210938 128.757812 231.308594 C 152.910156 260.480469 198.617188 267.539062 229.644531 245.058594 C 248.78125 232.238281 257.886719 208.640625 272.007812 191.921875 C 285.570312 175.757812 306.753906 164.792969 327.003906 160.707031 C 367.136719 153.832031 353.386719 218.117188 345.027344 240.785156 C 299.691406 360.253906 146.035156 389.984375 60.566406 294.480469 C -0.00390625 228.152344 5.011719 122.617188 70.230469 61.304688 C 95.3125 37.519531 126.339844 22.101562 159.785156 17.453125 C 177.0625 15.597656 197.875 13.367188 206.976562 26.746094 Z M 207.347656 27.117188 " fill-opacity="1" fill-rule="nonzero"/><path fill="#7954d8" d="M 287.429688 37.335938 C 314.554688 36.964844 333.691406 54.613281 334.25 80.625 C 334.808594 106.265625 312.324219 128.933594 286.871094 128.191406 C 262.160156 127.632812 241.535156 106.453125 241.351562 81.554688 C 240.980469 56.285156 260.488281 37.707031 287.429688 37.335938 Z M 287.429688 37.335938 " fill-opacity="1" fill-rule="nonzero"/></svg>